# xmcd CD database file
#
# Track frame offsets:
#	150
#	21067
#	42539
#	63239
#
# Disc length: 1127 seconds
#
# Revision: 0
# Processed by: cddbd v1.5.1PL0 Copyright (c) Steve Scherf et al.
# Submitted via: CDex 1.51
#
DISCID=2d046504
DTITLE=riya - 時の向こう側
DYEAR=2005
DGENRE=JPop
TTITLE0=時の向こう側
TTITLE1=空の果てへ
TTITLE2=時の向こう側 (off vocal)
TTITLE3=空の果てへ (off vocal)
EXTD=YEAR: 2005
EXTT0=
EXTT1=
EXTT2=
EXTT3=
PLAYORDER=
